# xmcd
#
# Track frame offsets:
#	150
#	17660
#	38295
#	52882
#	74638
#	93156
#	107774
#	125283
#	145920
#	160509
#	182265
#	200784
#
# Disc length: 2872 seconds
#
# Revision: 3
# Processed by: cddbd v1.5.2PL0 Copyright (c) Steve Scherf et al.
# Submitted via: audiograbber 1.83.01
#
DISCID=930b360c
DTITLE=Various Artist - CB20001
DYEAR=1900
DGENRE=Karaoke
TTITLE0=VOCAL - VOCAL
TTITLE1=VOCAL - VOCAL
TTITLE2=VOCAL - VOCAL
TTITLE3=VOCAL - VOCAL
TTITLE4=VOCAL - VOCAL
TTITLE5=VOCAL - VOCAL
TTITLE6=It's Your Love - McGraw, Tim and Faith Hill
TTITLE7=How Do I Live - Yearwood, Trisha
TTITLE8=Drink, Swear, Steal and Lie - Peterson, Michael
TTITLE9=Butterfly Kisses - Raybon Brothers, The
TTITLE10=Down Came A Blackbird - McCann, Lila
TTITLE11=I Left Something Turned On At Home - Adkins, Trace
EXTD=
EXTT0=
EXTT1=
EXTT2=
EXTT3=
EXTT4=
EXTT5=
EXTT6=
EXTT7=
EXTT8=
EXTT9=
EXTT10=
EXTT11=
PLAYORDER=
